# This file uses centimeters as units for non-parametric coordinates.

g default
v -2.910937 -12.427921 24.000000
v -2.910937 12.427921 24.000000
v -2.910937 -12.427921 28.000000
v -2.910937 12.427921 28.000000
v 0.000000 -12.427921 28.000000
v 0.000000 -12.427921 24.000000
v 0.000000 12.427921 24.000000
v 0.000000 12.427921 28.000000
v -2.000000 -12.000000 0.000000
v -2.000000 -8.000000 0.000000
v -2.000000 -12.000000 24.000000
v -2.000000 -8.000000 24.000000
v 0.000000 -12.000000 24.000000
v 0.000000 -12.000000 0.000000
v 0.000000 -8.000000 0.000000
v 0.000000 -8.000000 24.000000
v -0.500000 -8.000000 0.000000
v -0.500000 8.000000 0.000000
v -0.500000 -8.000000 24.000000
v -0.500000 8.000000 24.000000
v -2.000000 12.000000 0.000000
v -2.000000 8.000000 0.000000
v -2.000000 12.000000 24.000000
v -2.000000 8.000000 24.000000
v 0.000000 12.000000 24.000000
v 0.000000 12.000000 0.000000
v 0.000000 8.000000 0.000000
v 0.000000 8.000000 24.000000
vt 0.022717 0.735011
vt 0.309550 0.731564
vt 0.062746 0.970096
vt 0.009330 0.878923
vt 0.047064 0.040193
vt 0.297064 0.040193
vt 0.006299 0.878923
vt 0.062746 0.993441
vt 0.006299 0.735011
vt 0.047064 0.004407
vt 0.297064 0.004407
vt 0.020595 0.735011
vt 0.277285 0.993441
vt 0.020595 0.878923
vt 0.009330 0.735011
vt 0.309550 0.878923
vt 0.277285 0.970096
vt 0.026165 0.731564
vt 0.026165 0.878923
vt 0.022717 0.878923
vt 0.041364 0.839077
vt 0.291364 0.839077
vt 0.291364 0.125016
vt 0.041364 0.125016
vt 0.321550 0.839077
vt 0.332560 0.839077
vt 0.332560 0.125016
vt 0.321550 0.125016
vt 0.004186 0.839077
vt 0.019748 0.839077
vt 0.019748 0.125016
vt 0.004186 0.125016
vt 0.337781 0.000000
vt 1.000000 0.000000
vt 1.000000 1.000000
vt 0.337781 1.000000
vt 0.041364 0.839077
vt 0.291364 0.839077
vt 0.291364 0.125016
vt 0.041364 0.125016
vt 0.320844 0.839077
vt 0.331854 0.839077
vt 0.331854 0.125016
vt 0.320844 0.125016
vt 0.008064 0.839077
vt 0.023625 0.839077
vt 0.023625 0.125016
vt 0.008064 0.125016
vn -1.000000 0.000000 0.000000
vn -1.000000 0.000000 0.000000
vn -1.000000 0.000000 0.000000
vn -1.000000 0.000000 0.000000
vn 0.000000 0.000000 1.000000
vn 0.000000 0.000000 1.000000
vn 0.000000 0.000000 1.000000
vn 0.000000 0.000000 1.000000
vn 0.000000 0.000000 -1.000000
vn 0.000000 0.000000 -1.000000
vn 0.000000 0.000000 -1.000000
vn 0.000000 0.000000 -1.000000
vn 0.000000 1.000000 0.000000
vn 0.000000 1.000000 0.000000
vn 0.000000 1.000000 0.000000
vn 0.000000 1.000000 0.000000
vn 0.000000 -1.000000 0.000000
vn 0.000000 -1.000000 0.000000
vn 0.000000 -1.000000 0.000000
vn 0.000000 -1.000000 0.000000
vn -1.000000 0.000000 0.000000
vn -1.000000 0.000000 0.000000
vn -1.000000 0.000000 0.000000
vn -1.000000 0.000000 0.000000
vn 0.000000 1.000000 0.000000
vn 0.000000 1.000000 0.000000
vn 0.000000 1.000000 0.000000
vn 0.000000 1.000000 0.000000
vn 0.000000 -1.000000 0.000000
vn 0.000000 -1.000000 0.000000
vn 0.000000 -1.000000 0.000000
vn 0.000000 -1.000000 0.000000
vn -1.000000 0.000000 0.000000
vn -1.000000 0.000000 0.000000
vn -1.000000 0.000000 0.000000
vn -1.000000 0.000000 0.000000
vn -1.000000 0.000000 0.000000
vn -1.000000 0.000000 0.000000
vn -1.000000 0.000000 0.000000
vn -1.000000 0.000000 0.000000
vn 0.000000 -1.000000 0.000000
vn 0.000000 -1.000000 0.000000
vn 0.000000 -1.000000 0.000000
vn 0.000000 -1.000000 0.000000
vn 0.000000 1.000000 0.000000
vn 0.000000 1.000000 0.000000
vn 0.000000 1.000000 0.000000
vn 0.000000 1.000000 0.000000
g pCube8
f 1/18/1 3/19/2 4/16/3 2/2/4
f 3/3/5 5/8/6 8/13/7 4/17/8
f 6/10/9 1/5/10 2/6/11 7/11/12
f 2/15/13 4/4/14 8/14/15 7/12/16
f 6/9/17 5/7/18 3/20/19 1/1/20
f 9/21/21 11/24/22 12/23/23 10/22/24
f 10/25/25 12/28/26 16/27/27 15/26/28
f 14/29/29 13/32/30 11/31/31 9/30/32
f 17/33/33 19/36/34 20/35/35 18/34/36
f 21/37/37 22/38/38 24/39/39 23/40/40
f 22/41/41 27/42/42 28/43/43 24/44/44
f 26/45/45 21/46/46 23/47/47 25/48/48
